<?xml version="1.0" standalone="no"?>
<!DOCTYPE svg PUBLIC "-//W3C//DTD SVG 20010904//EN"
 "http://www.w3.org/TR/2001/REC-SVG-20010904/DTD/svg10.dtd">
<svg version="1.0" xmlns="http://www.w3.org/2000/svg"
 width="324.000000pt" height="324.000000pt" viewBox="0 0 324.000000 324.000000"
 preserveAspectRatio="xMidYMid meet">
<metadata>
Created by potrace 1.14, written by Peter Selinger 2001-2017
</metadata>
<g transform="translate(0.000000,324.000000) scale(0.100000,-0.100000)"
fill="#000000" stroke="none">
<path d="M1495 2860 c-292 -76 -529 -263 -641 -507 -19 -40 -39 -73 -46 -74
-96 -6 -250 -66 -357 -138 -115 -79 -200 -175 -265 -300 -72 -141 -90 -218
-89 -386 1 -128 22 -214 84 -340 98 -201 286 -359 505 -424 109 -32 117 -33
455 -37 326 -5 346 -3 393 35 30 25 55 90 50 130 -5 43 -29 78 -74 109 -32 21
-40 22 -319 23 -157 1 -289 1 -293 0 -21 -3 -121 23 -178 46 -275 112 -403
427 -279 687 79 166 238 280 419 300 96 11 134 18 152 27 24 13 68 72 73 100
33 173 183 343 370 422 112 47 162 57 295 58 390 5 705 -293 676 -639 -3 -42
-8 -89 -10 -104 -6 -39 33 -109 73 -132 50 -29 236 -30 292 -2 45 23 79 82 79
138 0 47 -48 112 -94 129 -30 11 -36 18 -37 44 -1 56 -15 134 -35 205 -42 145
-167 335 -278 422 -28 22 -60 47 -71 56 -11 10 -38 27 -60 39 -22 11 -56 30
-75 40 -122 67 -285 102 -470 102 -116 0 -151 -4 -245 -29z"/>
<path d="M2100 1507 c-80 -23 -124 -50 -186 -113 -84 -84 -108 -146 -109 -274
0 -87 3 -101 33 -165 30 -64 56 -93 305 -337 150 -147 285 -273 300 -279 22
-10 34 -9 58 2 43 20 536 505 574 564 155 241 20 554 -261 606 -82 15 -157 6
-248 -30 -93 -37 -106 -38 -174 -6 -30 14 -66 28 -80 31 -55 13 -168 13 -212
1z m215 -165 c22 -11 49 -29 60 -39 69 -65 104 -68 172 -15 70 56 111 74 176
77 68 4 109 -8 170 -51 81 -58 116 -172 83 -272 -18 -52 -86 -126 -363 -394
-94 -92 -103 -98 -142 -98 -39 0 -47 6 -172 128 -299 289 -317 309 -339 379
-15 49 -9 127 15 172 24 48 91 108 137 124 59 20 153 15 203 -11z"/>
</g>
</svg>
